<svg xmlns="http://www.w3.org/2000/svg" width="324" height="54" viewBox="0 0 324 54" version="1">
    <g style="fill-rule:evenodd;fill:none">
        <path d="M2.7 37.7L16 0 29.3 0 41.2 33.7 2.7 37.7 2.7 37.7ZM73.5 30.3L63.4 12.7 63.1 12.7C63.5 19.6 63.7 24.5 63.7 27.4L63.7 31.3 54 32.3 54 0.2 67.7 0.2 84.5 29.1 73.5 30.3 73.5 30.3ZM89.8 28.5C89.8 26.9 89.8 25.6 89.8 24.5L89.8 0.2 99.6 0.2 99.6 27.5 89.8 28.5 89.8 28.5ZM112.5 26.2L112.5 0.2 123.4 0.2 123.4 25 112.5 26.2 112.5 26.2ZM147 22.5L156.3 9.2 132.3 9.2 132.3 0.2 169.2 0.2 169.2 7.2 159.5 21.2 147 22.5ZM189.5 18.1L187.4 11.3 187.1 11.3C187.3 13.9 187.4 16.2 187.5 18.3L178.1 19.3 178.1 0.2 192.9 0.2 198.1 17.2 189.5 18.1ZM213.1 15.6L218.2 0.2 233 0.2 233 13.5 223.2 14.5C223.3 13.5 223.3 12.5 223.4 11.4L223.1 11.4 222 14.7 213.1 15.6 213.1 15.6ZM29.4 30.2L16.1 30.2C19.7 18.4 21.9 11 22.7 8 22.9 8.8 23.2 10 23.6 11.4 24.1 12.9 26 19.1 29.4 30.2ZM4.9 39.2L43.3 35.2 49.7 53.1 37.9 53.1 34.2 40.9 15.5 40.9 11.7 53.1 0 53.1 4.9 39.2ZM75.6 31.8L75.6 31.8 86.6 30.6 92.2 40.2 92.5 40.2C92.2 36.1 92.1 32.7 92 30L101.7 29 101.7 53.1 87.9 53.1 75.6 31.8ZM65.9 32.8L65.9 53.1 56.1 53.1 56.1 33.8 65.9 32.8ZM114.7 27.7L114.7 27.7 125.6 26.5 125.6 53.1 114.7 53.1 114.7 27.7ZM149.1 24L149.1 24 161.6 22.7 146.7 44.1 172 44.1 172 53.1 133.8 53.1 133.8 46 149.1 24ZM191.7 19.6L191.7 19.6 200.3 18.7 207.2 41 207.4 41 215.3 17.1 224.1 16.2 212 53.1 202 53.1 191.7 19.6ZM189.6 19.8C189.8 24.2 189.9 27.3 189.9 29.2L189.9 53.1 180.2 53.1 180.2 20.8 189.6 19.8 189.6 19.8ZM235.2 15L235.2 53.1 225 53.1 225 28.8C225 27.6 225 26.3 225.1 24.8 225.1 23.6 225.2 20.6 225.4 16L235.2 15ZM263.2 53L259.5 53 259.5 3.6 242.4 3.6 242.4 0.2 280.4 0.2 280.4 3.6 263.2 3.6 263.2 53ZM319.5 0.2L323.5 0.2 303.7 53 300.5 53 280.8 0.2 284.7 0.2 298 36.1C300 41.5 301.4 45.6 302.1 48.3 302.6 46.5 303.5 43.7 304.9 39.9L319.5 0.2Z"
              fill="#FFF"/>
    </g>
</svg>
